Coordinates
version=1
nRows=54
nColumns=12
inDegrees=yes

Units are S.I. units (second, meters, Newtons, ...)
Angles are in degrees

endheader
time	SC_y	SC_z	SC_x	AC_y	AC_z	AC_x	GH_y	GH_z	GH_yy	EL_x	PS_y
       0.0              -46.29          24.31          28.48          53.81         -7.479         -13.19         -169.1          13.22          155.5          20.11          147.8
 0.0001083              -46.29          24.31          28.48          53.81         -7.477         -13.19         -169.1          13.22          155.5          20.13          147.8
 0.0002166              -46.29          24.31          28.49          53.82         -7.475         -13.18         -169.1          13.22          155.4          20.14          147.7
 0.0003248              -46.29          24.32          28.49          53.82         -7.473         -13.18         -169.0          13.22          155.4          20.16          147.7
 0.0004331              -46.29          24.32          28.49          53.82         -7.471         -13.18         -169.0          13.22          155.4          20.18          147.7
 0.0005414              -46.29          24.32          28.49          53.82         -7.469         -13.17         -169.0          13.22          155.4           20.2          147.7
 0.0006497              -46.29          24.32          28.49          53.83         -7.467         -13.17         -169.0          13.21          155.3          20.23          147.7
 0.0007579              -46.29          24.33           28.5          53.83         -7.464         -13.16         -168.9          13.21          155.3          20.25          147.7
 0.0008662              -46.29          24.33           28.5          53.83         -7.461         -13.16         -168.9          13.21          155.3          20.28          147.7
 0.0009745              -46.29          24.33           28.5          53.84         -7.458         -13.15         -168.9          13.21          155.2           20.3          147.7
  0.001083              -46.29          24.34           28.5          53.84         -7.455         -13.15         -168.8          13.21          155.2          20.33          147.7
  0.001191              -46.29          24.34          28.51          53.84         -7.452         -13.14         -168.8          13.21          155.2          20.37          147.7
  0.001299              -46.29          24.34          28.51          53.85         -7.448         -13.13         -168.8          13.21          155.1           20.4          147.7
  0.001408              -46.29          24.35          28.51          53.85         -7.444         -13.12         -168.7          13.21          155.1          20.44          147.7
  0.001516              -46.29          24.35          28.52          53.86          -7.44         -13.12         -168.7           13.2          155.0          20.48          147.7
  0.001624              -46.29          24.36          28.52          53.86         -7.435         -13.11         -168.6           13.2          155.0          20.53          147.7
  0.001732              -46.29          24.36          28.53          53.87          -7.43          -13.1         -168.5           13.2          154.9          20.57          147.7
  0.001841              -46.29          24.37          28.53          53.87         -7.424         -13.09         -168.5           13.2          154.8          20.63          147.6
  0.001949              -46.28          24.38          28.54          53.88         -7.418         -13.07         -168.4           13.2          154.8          20.68          147.6
  0.002057              -46.28          24.38          28.54          53.89         -7.412         -13.06         -168.3          13.19          154.7          20.75          147.6
  0.002166              -46.28          24.39          28.55           53.9         -7.404         -13.05         -168.2          13.19          154.6          20.81          147.6
  0.002274              -46.28           24.4          28.55          53.91         -7.396         -13.03         -168.2          13.19          154.5          20.89          147.6
  0.002382              -46.28          24.41          28.56          53.92         -7.388         -13.01         -168.1          13.18          154.4          20.97          147.6
   0.00249              -46.28          24.42          28.57          53.93         -7.378          -13.0         -167.9          13.18          154.3          21.07          147.5
  0.002599              -46.28          24.43          28.58          53.94         -7.367         -12.97         -167.8          13.17          154.1          21.17          147.5
  0.002707              -46.27          24.45          28.59          53.95         -7.355         -12.95         -167.7          13.17          154.0          21.29          147.5
  0.002815              -46.27          24.46           28.6          53.97         -7.341         -12.92         -167.5          13.16          153.8          21.41          147.5
  0.002923              -46.27          24.48          28.62          53.99         -7.326          -12.9         -167.3          13.16          153.7          21.56          147.4
  0.003032              -46.27           24.5          28.63          54.01         -7.308         -12.86         -167.1          13.15          153.5          21.72          147.4
   0.00314              -46.26          24.52          28.65          54.03         -7.289         -12.82         -166.9          13.14          153.2          21.91          147.4
  0.003248              -46.26          24.54          28.67          54.05         -7.266         -12.78         -166.7          13.13          153.0          22.12          147.3
  0.003357              -46.26          24.57          28.69          54.08          -7.24         -12.73         -166.4          13.12          152.6          22.37          147.3
  0.003465              -46.25           24.6          28.72          54.12         -7.211         -12.67         -166.0          13.11          152.3          22.65          147.2
  0.003573              -46.25          24.64          28.74          54.16         -7.176         -12.61         -165.6           13.1          151.9          22.97          147.1
  0.003681              -46.24          24.69          28.78           54.2         -7.136         -12.53         -165.1          13.08          151.4          23.36          147.0
   0.00379              -46.23          24.74          28.82          54.26         -7.088         -12.44         -164.6          13.06          150.8          23.81          146.9
  0.003898              -46.23           24.8          28.87          54.32         -7.031         -12.33         -163.9          13.04          150.2          24.34          146.8
  0.004006              -46.22          24.87          28.93           54.4         -6.963         -12.19         -163.2          13.01          149.4          24.99          146.7
  0.004114               -46.2          24.96           29.0          54.49         -6.881         -12.04         -162.2          12.98          148.4          25.76          146.5
  0.004223              -46.19          25.07          29.09           54.6         -6.781         -11.84         -161.1          12.94          147.2          26.71          146.3
  0.004331              -46.17          25.21          29.19          54.74         -6.657          -11.6         -159.6          12.89          145.7          27.88          146.0
  0.004439              -46.15          25.38          29.33          54.92         -6.502          -11.3         -157.8          12.82          143.9          29.35          145.7
  0.004548              -46.12          25.59           29.5          55.14         -6.308         -10.93         -155.6          12.75          141.6          31.19          145.3
  0.004656              -46.08          25.86          29.71          55.42          -6.06         -10.45         -152.7          12.65          138.7          33.53          144.8
  0.004764              -46.03          26.21          29.98          55.78         -5.743         -9.835         -149.1          12.52          134.9          36.52          144.1
  0.004872              -45.97          26.65          30.33          56.24         -5.337         -9.049         -144.4          12.35          130.1          40.36          143.2
  0.004981              -45.89          27.22          30.78          56.83         -4.818         -8.045         -138.4          12.14          123.9          45.27          142.1
  0.005089              -45.79          27.93          31.35          57.57         -4.165         -6.782         -130.9          11.88          116.2          51.45          140.8
  0.005197              -45.67          28.81          32.03          58.47         -3.369         -5.244         -121.7          11.56          106.8          58.97          139.1
  0.005306              -45.54          29.81          32.83          59.52         -2.447          -3.46         -111.1          11.18          95.83          67.69          137.2
  0.005414              -45.38          30.91          33.69          60.65         -1.449         -1.529         -99.57          10.78          83.99          77.13          135.1
  0.005522              -45.23           32.0          34.56          61.78        -0.4502         0.4018         -88.05          10.37          72.15          86.57          132.9
   0.00563               -45.1          33.01          35.35          62.83         0.4719          2.185         -77.42           10.0          61.22          95.29          131.0
  0.005739              -44.98          33.88          36.04          63.73          1.267          3.724         -68.25          9.677          51.79          102.8          129.3
